<svg width="184" height="170" viewBox="0 0 184 170" fill="none" xmlns="http://www.w3.org/2000/svg">
    <path
        d="M50 46L78.7273 46L78.7273 139.091L48.7273 139.091C39.697 139.091 31.9697 137.227 25.5455 133.5C19.1212 129.803 14.197 124.485 10.7727 117.545C7.34849 110.636 5.63637 102.364 5.63637 92.7273C5.63637 83.0303 7.36364 74.6818 10.8182 67.6818C14.2727 60.7121 19.303 55.3485 25.9091 51.5909C32.5152 47.8636 40.5455 46 50 46ZM67.4546 56L50.7273 56C43.0303 56 36.6515 57.4848 31.5909 60.4545C26.5303 63.4242 22.7576 67.6515 20.2727 73.1364C17.7879 78.6212 16.5455 85.1515 16.5455 92.7273C16.5455 100.242 17.7727 106.712 20.2273 112.136C22.6818 117.591 26.3485 121.773 31.2273 124.682C36.1061 127.621 42.1818 129.091 49.4545 129.091L67.4545 129.091L67.4546 56Z"
        fill="white" />
    <path
        d="M175.091 30.9091L175.091 124L164.182 124L113.455 50.9091L112.545 50.9091L112.545 124L101.273 124L101.273 30.9091L112.182 30.9091L163.091 104.182L164 104.182L164 30.9091L175.091 30.9091Z"
        fill="white" />
    <path
        d="M84.2727 139L84.2727 45.9091L95.5455 45.9091L95.5455 129L138.818 129L138.818 139L84.2727 139Z"
        fill="white" />
    <path d="M73 111L37 111L37 101L73 101L73 111Z" fill="white" />

    <style>
    svg { fill: #000; }

    @media (prefers-color-scheme: dark) {
        svg { fill: #FFF; }
    }
    </style>
</svg>